<?xml version="1.0" encoding="UTF-8" standalone="no"?>
<svg width="24px" height="32px" viewBox="0 0 24 32" version="1.1" xmlns="http://www.w3.org/2000/svg" xmlns:xlink="http://www.w3.org/1999/xlink" xmlns:sketch="http://www.bohemiancoding.com/sketch/ns">
    <!-- Generator: Sketch 3.4.4 (17249) - http://www.bohemiancoding.com/sketch -->
    <title>Slice 1</title>
    <desc>Created with Sketch.</desc>
    <defs>
        <path id="path-1" d="M0,0 L24,0 L24,32 L0,32"></path>
    </defs>
    <g id="Page-1" stroke="none" stroke-width="1" fill="none" fill-rule="evenodd" sketch:type="MSPage">
        <g sketch:type="MSLayerGroup" transform="translate(1.000000, 0.000000)">
            <mask id="mask-2" sketch:name="Clip 2" fill="white">
                <use xlink:href="#path-1"></use>
            </mask>
            <g id="Clip-2"></g>
            <path d="M5.472,20.6079 C1.851,23.5099 0.444,26.8499 0.042,28.1719 C-0.063,28.5169 0.029,28.8789 0.299,29.1609 L2.872,31.8499 C3.105,32.0939 3.584,32.0289 3.696,31.7349 C4.393,29.9039 6.511,24.9469 10.006,21.9059 C15.674,16.9749 24,15.9989 24,15.9989 C24,15.9989 15.674,15.0249 10.006,10.0949 C6.511,7.0539 4.393,2.0959 3.696,0.2649 C3.584,-0.0291 3.105,-0.0941 2.872,0.1499 L0.299,2.8389 C0.029,3.1209 -0.063,3.4829 0.042,3.8279 C0.444,5.1499 1.851,8.4899 5.472,11.3919 C9.763,14.8309 16.525,16.0439 16.403,15.9989 C16.403,15.9989 9.763,17.1689 5.472,20.6079" id="Fill-1" fill="#FFFFFF" sketch:type="MSShapeGroup" mask="url(#mask-2)"></path>
        </g>
    </g>
</svg>