<?xml version="1.0" encoding="UTF-8" standalone="no"?>
<svg width="25px" height="32px" viewBox="0 0 25 32" version="1.1" xmlns="http://www.w3.org/2000/svg" xmlns:xlink="http://www.w3.org/1999/xlink" xmlns:sketch="http://www.bohemiancoding.com/sketch/ns">
    <!-- Generator: Sketch 3.4.4 (17249) - http://www.bohemiancoding.com/sketch -->
    <title>Slice 1</title>
    <desc>Created with Sketch.</desc>
    <defs>
        <path id="path-1" d="M0,0 L24,0 L24,32 L0,32"></path>
    </defs>
    <g id="Page-1" stroke="none" stroke-width="1" fill="none" fill-rule="evenodd" sketch:type="MSPage">
        <g sketch:type="MSLayerGroup">
            <mask id="mask-2" sketch:name="Clip 2" fill="white">
                <use xlink:href="#path-1"></use>
            </mask>
            <g id="Clip-2"></g>
            <path d="M18.528,11.3921 C22.149,8.4901 23.556,5.1501 23.958,3.8281 C24.063,3.4831 23.971,3.1211 23.701,2.8391 L21.128,0.1501 C20.895,-0.0939 20.416,-0.0289 20.304,0.2651 C19.607,2.0961 17.489,7.0531 13.994,10.0941 C8.326,15.0251 0,16.0011 0,16.0011 C0,16.0011 8.326,16.9751 13.994,21.9051 C17.489,24.9461 19.607,29.9041 20.304,31.7351 C20.416,32.0291 20.895,32.0941 21.128,31.8501 L23.701,29.1611 C23.97,28.8791 24.063,28.5171 23.958,28.1721 C23.556,26.8501 22.149,23.5101 18.528,20.6081 C14.237,17.1691 7.475,15.9561 7.597,16.0011 C7.597,16.0011 14.237,14.8311 18.528,11.3921" id="Fill-1" fill="#FFFFFF" sketch:type="MSShapeGroup" mask="url(#mask-2)"></path>
        </g>
    </g>
</svg>